<svg width="838" height="550" viewBox="0 0 838 550" fill="none" xmlns="http://www.w3.org/2000/svg">
<path fill-rule="evenodd" clip-rule="evenodd" d="M155.853 520.318C155.753 519.727 155.678 519.144 155.63 518.56C155.557 517.684 155.602 516.802 155.576 515.926C155.565 515.554 155.52 514.586 155.538 514.447C155.701 513.233 156.681 513.047 156.967 513.014C157.106 512.994 158.53 512.835 158.837 514.413C159.214 516.344 159.334 518.288 159.201 520.192C159.512 521.81 160.044 523.423 160.747 524.882C163.542 530.687 168.869 531.251 174.641 531.198C175.529 531.184 176.266 531.881 176.312 532.763C176.359 533.652 175.698 534.422 174.814 534.501C171.588 534.813 165.864 537.401 163.885 540.094C163.471 540.658 163.23 542.018 162.912 543.351C162.468 545.202 161.939 547.033 161.346 547.803C161.258 547.922 160.177 549.143 159.854 549.322C159.08 549.747 158.459 549.501 158.107 549.276C157.755 549.05 157.356 548.606 157.197 547.869C157.03 547.1 157.171 545.521 157.145 545.182C157.051 543.955 156.805 541.547 156.305 539.477C156.035 538.362 155.747 537.334 155.27 536.823C153.507 534.933 150.687 535.211 148.313 535.523C148.04 535.556 147.768 535.596 147.496 535.629C146.529 535.915 145.503 536.127 144.418 536.253C142.78 536.445 142.511 534.939 142.496 534.84C142.466 534.621 142.352 533.493 143.587 533.042C143.722 532.996 144.715 532.777 145.098 532.69C145.632 532.571 146.171 532.478 146.712 532.392C152.304 530.654 155.341 525.771 155.853 520.318ZM157.772 526.348C159.883 530.713 163.087 532.823 166.884 533.778H166.883C164.512 535.019 162.355 536.571 161.212 538.13C160.779 538.721 160.38 539.908 160.022 541.242C159.827 540.001 159.565 538.681 159.218 537.553C158.823 536.266 158.291 535.198 157.698 534.561C156.553 533.334 155.116 532.651 153.571 532.312C155.421 530.674 156.823 528.63 157.772 526.348Z" fill="#6366F1" fill-opacity="0.4"/>
<path fill-rule="evenodd" clip-rule="evenodd" d="M804.901 29.0515C804.882 27.6976 804.705 26.3321 804.35 24.9572C803.106 20.1322 797.555 17.0346 791.647 16.3063C785.741 15.578 779.6 17.2353 777.233 21.4324C775.879 23.832 775.692 25.9002 776.245 27.6439C776.796 29.3783 778.103 30.8162 779.877 31.9366C784.824 35.0576 793.486 35.6948 797.438 34.39C799.266 33.7854 801.052 33.0571 802.791 32.2238C801.796 37.679 798.092 42.8471 793.148 47.504C782.403 57.6254 765.729 65.3075 756.649 68.132C756.161 68.2837 755.89 68.8019 756.042 69.2898C756.194 69.7776 756.712 70.0508 757.2 69.899C766.46 67.0185 783.458 59.173 794.415 48.8509C800.076 43.5194 804.11 37.5179 804.798 31.2084C817.595 24.3713 828.104 11.9669 837.088 1.52803C837.422 1.14288 837.378 0.556954 836.99 0.223152C836.603 -0.108316 836.019 -0.066317 835.685 0.321173C827.067 10.3329 817.065 22.2424 804.901 29.0515ZM803.041 30.0436C803.111 28.5216 802.961 26.9763 802.557 25.417C801.481 21.241 796.535 18.7713 791.42 18.1411C788.286 17.7559 785.062 18.0734 782.534 19.2032C780.944 19.9128 779.635 20.9422 778.846 22.3428C777.809 24.1799 777.585 25.7508 778.01 27.0837C778.435 28.4259 779.49 29.5043 780.865 30.3703C785.372 33.2158 793.26 33.8204 796.857 32.6323C798.979 31.932 801.038 31.059 803.041 30.0436Z" fill="#FFB203"/>
<path fill-rule="evenodd" clip-rule="evenodd" d="M46.1473 50.4157C38.7089 52.5723 30.1208 54.7185 21.859 55.2544C14.7975 55.7118 7.97673 55.0013 2.39384 51.9786C1.60685 51.553 0.621326 51.8456 0.195716 52.6332C-0.230543 53.4202 0.0627095 54.4058 0.849699 54.832C6.93995 58.1285 14.366 58.9908 22.0685 58.4912C30.4789 57.9462 39.2221 55.7857 46.8098 53.598C47.6902 55.3815 49.5133 57.0444 52.7248 58.2713C57.6576 60.156 64.3928 60.1327 71.488 59.0706C81.7785 57.531 92.8483 53.8595 99.9656 51.2506C100.258 51.1442 100.692 50.9749 101.224 50.7517C101.386 51.1099 101.568 51.4628 101.769 51.8093C103.515 54.8288 106.603 57.2702 109.749 58.1422C129.706 63.6712 152.998 57.0463 171.963 51.6548C172.819 51.4102 173.318 50.5123 173.078 49.6514C172.832 48.7904 171.937 48.2902 171.074 48.5348C152.641 53.7758 130.011 60.3883 110.612 55.0156C108.225 54.3538 105.902 52.4775 104.579 50.186C104.429 49.9304 104.3 49.6689 104.176 49.4035C106.791 48.1079 109.866 46.3017 111.521 44.3682C113.221 42.3862 113.642 40.2704 112.163 38.2722C110.891 36.5639 108.964 36.4185 106.96 37.3041C104.799 38.2527 102.574 40.4702 101.854 41.5109C100.504 43.4547 100.076 45.5633 100.322 47.6193C99.6866 47.8879 99.1702 48.0878 98.8516 48.2045C91.8901 50.7556 81.0701 54.3565 71.0079 55.8623C64.5336 56.8316 58.3836 56.9607 53.8823 55.2414C51.9625 54.5076 50.6941 53.6512 50.0057 52.6573C51.3643 52.2511 52.6742 51.8514 53.9258 51.47C56.4009 50.7154 61.5543 49.4665 65.2362 47.2405C68.1642 45.4705 70.1496 43.0629 70.0341 40.0447C69.975 38.494 69.0777 37.4592 67.6497 36.8792C65.5158 36.013 61.8255 36.4321 60.4513 36.7241C56.2835 37.6078 50.7207 41.2657 47.9685 45.3875C46.8701 47.0322 46.2168 48.7528 46.1473 50.4157ZM49.571 49.4022C50.7486 49.048 51.8866 48.7002 52.9798 48.3667C55.2902 47.6622 60.1198 46.543 63.5578 44.4642C65.3783 43.3639 66.8647 42.0455 66.7927 40.1686C66.7868 40.0226 66.6421 39.9811 66.5143 39.9214C66.3164 39.8299 66.09 39.767 65.8487 39.7177C64.2156 39.3842 62.0221 39.7066 61.1241 39.8974C57.6271 40.6389 52.9752 43.7304 50.6662 47.1892C50.1783 47.9197 49.7897 48.6639 49.571 49.4022ZM103.527 46.1258C105.052 45.3414 106.648 44.3929 107.907 43.3606C108.575 42.8124 109.14 42.2486 109.496 41.6634C109.795 41.1794 109.912 40.6837 109.555 40.2049C109.412 40.0109 109.198 40.007 108.977 40.0434C108.744 40.0823 108.504 40.1653 108.264 40.2724C106.681 40.9692 105.046 42.597 104.52 43.3606C103.904 44.2462 103.599 45.1831 103.527 46.1258Z" fill="#4CD080"/>
</svg>
