<svg width="17" height="17" viewBox="0 0 17 17" fill="none" xmlns="http://www.w3.org/2000/svg">
<path d="M3.77406 13.2257C3.56253 13.0142 3.5449 12.6822 3.72118 12.4506L3.77406 12.3901L12.1307 4.03345C12.3614 3.80269 12.7356 3.80269 12.9663 4.03345C13.1779 4.24498 13.1955 4.57699 13.0192 4.8086L12.9663 4.86911L4.60973 13.2257C4.37896 13.4565 4.00483 13.4565 3.77406 13.2257Z" fill="#6366F1" stroke="#6366F1" stroke-width="0.5"/>
<path d="M5.82317 5.05632C5.49682 5.05702 5.2317 4.79304 5.23099 4.46669C5.23036 4.17002 5.44847 3.92393 5.73332 3.88111L5.82062 3.87452L12.5471 3.86003C12.8447 3.85939 13.0912 4.07876 13.1331 4.36458L13.1393 4.45216L13.1254 11.1792C13.1247 11.5056 12.8596 11.7696 12.5333 11.7689C12.2366 11.7683 11.9914 11.5491 11.9498 11.2641L11.9436 11.1768L11.9559 5.04308L5.82317 5.05632Z" fill="#6366F1" stroke="#6366F1" stroke-width="0.5"/>
</svg>
