<svg width="850" height="74" viewBox="0 0 850 74" fill="none" xmlns="http://www.w3.org/2000/svg">
<path fill-rule="evenodd" clip-rule="evenodd" d="M35.1334 24.1856C33.3566 23.4223 31.8 23.1009 30.5872 22.9302C18.9818 21.3433 12.6219 30.5834 9.70538 40.4061C8.92248 43.0375 8.61213 47.3361 9.78925 50.5802C10.6154 52.8601 12.1581 54.6278 14.7047 55.0698C17.479 55.5619 20.3776 54.206 22.9924 52.0165C26.7767 48.8527 29.9792 43.9615 31.3699 40.8881C32.9728 37.3427 34.855 31.6078 35.958 25.7825C37.8096 26.7567 39.8592 28.2332 41.9751 30.5231C42.9192 31.5375 43.7263 32.9336 44.3754 34.5204C42.0546 35.7156 39.8665 37.4231 37.9359 39.6427C36.3157 41.5108 33.6505 46.0706 32.8325 50.1082C32.2509 52.9907 32.6254 55.602 34.7075 56.988C37.2956 58.7055 39.7078 58.1029 41.7256 56.4256C44.5679 54.0654 46.5875 49.4955 47.0856 46.7938C47.6635 43.6501 47.1274 38.9899 45.7389 35.0829C53.7934 31.4572 63.2674 34.0987 68.478 42.5956C68.6357 42.8466 68.9722 42.927 69.2293 42.7763C69.4864 42.6156 69.5668 42.2741 69.4091 42.023C63.8941 33.034 53.8706 30.2219 45.3432 34.0485C44.6483 32.3611 43.785 30.8646 42.7771 29.7799C40.4447 27.259 38.1857 25.6721 36.1613 24.6577C36.3493 23.5629 36.5071 22.4681 36.6278 21.3834C37.1727 16.5123 36.9474 11.9425 35.3802 8.93942C31.7596 1.99928 24.5868 0.0708875 17.5852 1.3866C10.651 2.69227 3.91041 7.18173 1.05591 12.997C0.923036 13.2682 1.03512 13.5996 1.3059 13.7302C1.57678 13.8607 1.9045 13.7502 2.03728 13.4791C4.75348 7.94503 11.1885 3.69665 17.7867 2.46129C24.3175 1.23596 31.0338 2.97351 34.411 9.44161C35.8985 12.304 36.0587 16.6328 35.5415 21.2629C35.4338 22.2271 35.296 23.2013 35.1334 24.1856ZM44.7702 35.555C42.6066 36.6899 40.5648 38.2868 38.7612 40.3659C37.2186 42.1436 34.6828 46.4724 33.9039 50.3291C33.4209 52.7195 33.5833 54.9291 35.3123 56.0741C37.4211 57.4802 39.3837 56.9479 41.0277 55.5819C43.6779 53.3924 45.5461 49.1138 46.0106 46.5929C46.5552 43.6401 46.0658 39.241 44.7702 35.555ZM34.9386 25.2904C33.1756 24.507 31.6327 24.1856 30.439 24.0149C19.4355 22.5083 13.5185 31.4069 10.7532 40.7174C10.023 43.168 9.71884 47.1754 10.8168 50.2086C11.5074 52.1068 12.7657 53.6235 14.8942 53.9951C17.3801 54.437 19.9478 53.1414 22.2907 51.1829C25.9429 48.1296 29.0319 43.399 30.374 40.4362C31.9772 36.8908 33.8633 31.1258 34.9386 25.2904Z" fill="#4CD080" stroke="#4CD080"/>
<path fill-rule="evenodd" clip-rule="evenodd" d="M68.6361 41.9104C68.1158 41.7095 66.6163 41.137 66.3873 41.0567C65.7445 40.8357 65.391 40.8156 65.0294 40.8357C64.7391 40.8558 64.4409 40.9161 63.8945 40.8859C63.5932 40.8658 63.3371 41.1069 63.322 41.4082C63.3069 41.7095 63.5399 41.9606 63.8412 41.9807C64.3364 42.0008 64.6508 41.9706 64.926 41.9405C65.2433 41.9104 65.4904 41.9003 66.0318 42.0912C66.2959 42.1816 67.7111 42.8445 68.4141 43.0152C68.7807 43.1056 69.0559 43.0554 69.1764 42.9851C69.3492 42.8847 69.5119 42.7038 69.6234 42.4226C69.765 42.061 69.8473 41.4584 69.9548 40.7855C70.0542 40.1528 70.1808 39.4397 70.448 38.817C70.6759 38.2947 71.0054 37.8427 71.5538 37.6218C71.834 37.5113 71.9726 37.1999 71.8621 36.9187C71.7516 36.6375 71.4332 36.4969 71.153 36.6074C70.3234 36.9288 69.7901 37.5916 69.4456 38.385C69.1413 39.0881 68.9876 39.8916 68.8751 40.6147C68.8058 41.0466 68.7526 41.4484 68.6813 41.7598C68.6702 41.81 68.6531 41.8602 68.6361 41.9104Z" fill="#4CD080" stroke="#4CD080"/>
<path fill-rule="evenodd" clip-rule="evenodd" d="M767.081 67.161C762.233 68.5668 756.634 69.9658 751.249 70.3151C746.646 70.6133 742.2 70.1502 738.56 68.1798C738.047 67.9024 737.405 68.0931 737.128 68.6065C736.85 69.1195 737.041 69.762 737.554 70.0398C741.524 72.1887 746.365 72.7508 751.386 72.4251C756.868 72.0699 762.567 70.6615 767.513 69.2354C768.087 70.398 769.276 71.482 771.369 72.2817C774.584 73.5103 778.975 73.4951 783.6 72.8028C790.308 71.7992 797.524 69.4059 802.163 67.7053C802.353 67.6359 802.637 67.5256 802.984 67.3801C803.089 67.6135 803.208 67.8436 803.339 68.0694C804.477 70.0377 806.49 71.6292 808.541 72.1976C821.55 75.8017 836.733 71.4832 849.095 67.9688C849.653 67.8093 849.979 67.224 849.822 66.6628C849.661 66.1016 849.078 65.7755 848.515 65.935C836.5 69.3513 821.749 73.6617 809.103 70.1595C807.547 69.7281 806.033 68.505 805.17 67.0113C805.073 66.8447 804.988 66.6742 804.908 66.5012C806.612 65.6567 808.617 64.4793 809.695 63.219C810.803 61.9269 811.078 60.5478 810.114 59.2452C809.285 58.1316 808.029 58.0369 806.722 58.6142C805.314 59.2325 803.863 60.678 803.394 61.3564C802.514 62.6235 802.235 63.998 802.396 65.3382C801.981 65.5133 801.645 65.6435 801.437 65.7197C796.899 67.3826 789.846 69.7298 783.287 70.7114C779.067 71.3433 775.058 71.4274 772.123 70.3067C770.872 69.8284 770.045 69.2701 769.597 68.6222C770.482 68.3574 771.336 68.0969 772.152 67.8482C773.765 67.3564 777.125 66.5423 779.525 65.0912C781.433 63.9375 782.727 62.368 782.652 60.4006C782.614 59.3898 782.029 58.7153 781.098 58.3372C779.707 57.7726 777.301 58.0458 776.406 58.2361C773.689 58.8121 770.063 61.1965 768.269 63.8834C767.553 64.9555 767.127 66.077 767.081 67.161ZM769.313 66.5004C770.081 66.2695 770.823 66.0428 771.535 65.8254C773.041 65.3661 776.189 64.6366 778.43 63.2815C779.617 62.5642 780.586 61.7049 780.539 60.4814C780.535 60.3862 780.441 60.3592 780.358 60.3202C780.229 60.2606 780.081 60.2196 779.924 60.1874C778.859 59.9701 777.429 60.1802 776.844 60.3046C774.565 60.788 771.532 62.8032 770.027 65.0578C769.709 65.534 769.456 66.0191 769.313 66.5004ZM804.485 64.3646C805.479 63.8533 806.519 63.235 807.34 62.5621C807.775 62.2048 808.143 61.8373 808.376 61.4558C808.57 61.1403 808.647 60.8172 808.414 60.505C808.321 60.3786 808.181 60.3761 808.038 60.3998C807.885 60.4251 807.729 60.4792 807.572 60.549C806.54 61.0032 805.475 62.0644 805.132 62.5621C804.73 63.1394 804.532 63.7501 804.485 64.3646Z" fill="#886BDF" fill-opacity="0.8"/>
</svg>
