<svg width="13" height="14" viewBox="0 0 13 14" fill="none" xmlns="http://www.w3.org/2000/svg">
<path fill-rule="evenodd" clip-rule="evenodd" d="M12.1549 5.79779H0.548583C0.279002 5.79779 0.0602112 5.579 0.0602112 5.30942C0.0602112 5.03984 0.279002 4.82104 0.548583 4.82104H12.1549C12.4245 4.82104 12.6433 5.03984 12.6433 5.30942C12.6433 5.579 12.4245 5.79779 12.1549 5.79779Z" fill="#AAAAAA"/>
<path fill-rule="evenodd" clip-rule="evenodd" d="M9.24726 8.34076C8.97768 8.34076 8.75629 8.12197 8.75629 7.85239C8.75629 7.5828 8.97182 7.36401 9.2414 7.36401H9.24726C9.51684 7.36401 9.73564 7.5828 9.73564 7.85239C9.73564 8.12197 9.51684 8.34076 9.24726 8.34076Z" fill="#AAAAAA"/>
<path fill-rule="evenodd" clip-rule="evenodd" d="M6.35774 8.34076C6.08816 8.34076 5.86676 8.12197 5.86676 7.85239C5.86676 7.5828 6.0823 7.36401 6.35188 7.36401H6.35774C6.62732 7.36401 6.84611 7.5828 6.84611 7.85239C6.84611 8.12197 6.62732 8.34076 6.35774 8.34076Z" fill="#AAAAAA"/>
<path fill-rule="evenodd" clip-rule="evenodd" d="M3.46212 8.34076C3.19254 8.34076 2.97049 8.12197 2.97049 7.85239C2.97049 7.5828 3.18668 7.36401 3.45626 7.36401H3.46212C3.7317 7.36401 3.95049 7.5828 3.95049 7.85239C3.95049 8.12197 3.7317 8.34076 3.46212 8.34076Z" fill="#AAAAAA"/>
<path fill-rule="evenodd" clip-rule="evenodd" d="M9.24729 10.872C8.97771 10.872 8.75632 10.6532 8.75632 10.3836C8.75632 10.1141 8.97185 9.89526 9.24143 9.89526H9.24729C9.51688 9.89526 9.73567 10.1141 9.73567 10.3836C9.73567 10.6532 9.51688 10.872 9.24729 10.872Z" fill="#AAAAAA"/>
<path fill-rule="evenodd" clip-rule="evenodd" d="M6.35777 10.872C6.08819 10.872 5.86679 10.6532 5.86679 10.3836C5.86679 10.1141 6.08233 9.89526 6.35191 9.89526H6.35777C6.62735 9.89526 6.84614 10.1141 6.84614 10.3836C6.84614 10.6532 6.62735 10.872 6.35777 10.872Z" fill="#AAAAAA"/>
<path fill-rule="evenodd" clip-rule="evenodd" d="M3.46215 10.872C3.19257 10.872 2.97052 10.6532 2.97052 10.3836C2.97052 10.1141 3.18671 9.89526 3.45629 9.89526H3.46215C3.73173 9.89526 3.95052 10.1141 3.95052 10.3836C3.95052 10.6532 3.73173 10.872 3.46215 10.872Z" fill="#AAAAAA"/>
<path fill-rule="evenodd" clip-rule="evenodd" d="M8.98184 3.11972C8.71226 3.11972 8.49347 2.90093 8.49347 2.63135V0.488372C8.49347 0.218791 8.71226 0 8.98184 0C9.25142 0 9.47021 0.218791 9.47021 0.488372V2.63135C9.47021 2.90093 9.25142 3.11972 8.98184 3.11972Z" fill="#AAAAAA"/>
<path fill-rule="evenodd" clip-rule="evenodd" d="M3.72156 3.11972C3.45198 3.11972 3.23318 2.90093 3.23318 2.63135V0.488372C3.23318 0.218791 3.45198 0 3.72156 0C3.99114 0 4.20993 0.218791 4.20993 0.488372V2.63135C4.20993 2.90093 3.99114 3.11972 3.72156 3.11972Z" fill="#AAAAAA"/>
<mask id="mask0_1_343" style="mask-type:luminance" maskUnits="userSpaceOnUse" x="0" y="1" width="13" height="13">
<path fill-rule="evenodd" clip-rule="evenodd" d="M-3.05176e-05 1.02808H12.6976V13.9998H-3.05176e-05V1.02808Z" fill="white"/>
</mask>
<g mask="url(#mask0_1_343)">
<path fill-rule="evenodd" clip-rule="evenodd" d="M3.59504 2.0044C1.90657 2.0044 0.976714 2.90495 0.976714 4.54002V10.4324C0.976714 12.1033 1.90657 13.0227 3.59504 13.0227H9.10257C10.791 13.0227 11.7209 12.1202 11.7209 10.4819V4.54002C11.7235 3.73584 11.5073 3.11072 11.0782 2.68095C10.6367 2.23816 9.95625 2.0044 9.10843 2.0044H3.59504ZM9.10257 13.9999H3.59504C1.37783 13.9999 -3.05176e-05 12.6331 -3.05176e-05 10.4328V4.54045C-3.05176e-05 2.37338 1.37783 1.02808 3.59504 1.02808H9.10843C10.2213 1.02808 11.1414 1.36147 11.7697 1.99115C12.3799 2.60389 12.7009 3.48491 12.6976 4.54175V10.4823C12.6976 12.652 11.3198 13.9999 9.10257 13.9999Z" fill="#AAAAAA"/>
</g>
</svg>
