<svg width="80" height="100" viewBox="0 0 80 100" fill="none" xmlns="http://www.w3.org/2000/svg">
<path d="M9.79086 1.5625C7.9263 3.59375 8.08168 7.03125 10.1016 8.67188C11.6554 10 11.7331 10.625 11.7331 28.4375C11.7331 45.8594 11.8108 46.9531 13.2869 48.4375C14.1415 49.2969 14.8407 50.8594 14.8407 51.7969C14.8407 52.8125 15.5399 54.2969 16.4722 55.1562C17.8706 56.4062 19.3467 56.6406 26.6496 56.6406C34.6516 56.6406 35.2731 56.5625 36.6715 54.7656C37.4484 53.75 38.1476 52.2656 38.1476 51.4844C38.1476 50.7031 38.8469 49.2969 39.7014 48.4375C40.7891 47.3438 41.2552 45.8594 41.2552 43.5156C41.2552 40.3125 41.4106 40.1562 44.829 38.75C47.4704 37.6562 49.0242 36.3281 50.5003 33.9062C53.0641 29.6875 55.1617 29.4531 60.3669 32.9688C69.379 39.1406 70.2336 51.875 61.9984 59.1406C58.5024 62.1875 54.3848 63.5938 51.1218 62.8125C49.7234 62.5 38.6138 62.1094 26.2611 61.9531L3.96412 61.6406L2.02188 63.5938C0.079632 65.5469 -0.464197 68.75 0.545771 71.4844C1.47805 73.8281 5.20716 75 11.7331 75H17.9483V77.2656C17.9483 79.4531 17.8706 79.4531 12.8208 79.9219C7.14941 80.3125 4.66333 81.7188 1.8665 85.9375C-0.541887 89.375 -0.619576 96.1719 1.63343 98.4375C3.10954 99.9219 4.19719 100 39.7014 100C75.2057 100 76.2934 99.9219 77.7695 98.4375C80.0225 96.1719 79.9448 89.375 77.6141 85.9375C73.6519 80.1562 73.4965 80.0781 53.2195 79.8438L35.0401 79.6094V77.3438V75.0781L41.8768 74.7656C60.0562 73.8281 69.9228 68.8281 75.2057 57.9688C77.0703 54.1406 77.381 52.5781 77.381 46.875C77.381 40.9375 77.0703 39.6094 74.8172 35C70.9328 26.9531 63.3192 21.3281 55.3948 20.4688C52.598 20.2344 51.1218 19.5312 49.0242 17.5C47.5481 16.0938 45.1397 14.5312 43.7413 13.9844C40.7891 12.9688 40.323 10.3125 42.809 8.75C45.062 7.34375 44.9067 2.8125 42.6537 1.25C41.2552 0.234375 38.2253 0 26.028 0C12.2769 0 11.1116 0.078125 9.79086 1.5625ZM41.0222 4.375C41.2552 5.07812 41.0222 5.9375 40.4007 6.32812C39.0022 7.1875 13.9861 7.1875 12.5877 6.32812C11.9662 5.9375 11.7331 5.07812 11.9662 4.375C12.4323 3.28125 14.3746 3.125 26.4942 3.125C38.6138 3.125 40.556 3.28125 41.0222 4.375ZM37.9923 11.875C37.8369 13.0469 36.9823 13.75 35.3508 14.2188C32.0878 15.0781 27.5041 20.2344 26.8049 23.8281C25.6396 30.1562 28.9026 36.4062 34.6516 38.75C38.1476 40.2344 38.2253 40.3125 37.9923 43.3594L37.7592 46.4844H26.4942H15.2291L14.9961 28.2812L14.8407 10.1562H26.5719C38.1476 10.1562 38.2253 10.1562 37.9923 11.875ZM44.9067 18.4375C47.315 20 49.8011 24.1406 49.8011 26.5625C49.8011 31.4062 44.5182 36.7188 39.7014 36.7188C34.8847 36.7188 29.6018 31.4062 29.6018 26.4844C29.6018 23.6719 32.6317 19.375 35.817 17.7344C38.7692 16.1719 41.9544 16.4062 44.9067 18.4375ZM61.61 25.8594C75.5941 33.0469 78.7017 51.4062 67.8252 62.8125C62.7753 68.0469 52.9087 71.6406 52.9087 68.125C52.9087 67.1094 53.9187 66.4062 56.7155 65.7031C64.8729 63.5938 70.8551 55.625 70.8551 46.875C70.9328 37.8125 65.4168 30.1562 57.0263 27.6562C53.7633 26.7188 52.9087 26.0938 52.9087 24.8438C52.9087 23.4375 53.2195 23.3594 55.7832 23.8281C57.337 24.1406 59.9785 25 61.61 25.8594ZM34.8847 51.3281C34.6516 52.5781 33.6416 52.7344 26.4942 52.7344C19.3467 52.7344 18.3367 52.5781 18.1037 51.3281C17.8706 50.1562 18.6475 50 26.4942 50C34.3408 50 35.1177 50.1562 34.8847 51.3281ZM48.5581 66.0938C50.1119 67.6562 50.1119 68.6719 48.4804 70.4688C47.315 71.7969 45.6059 71.875 26.4165 71.875C8.54782 71.875 5.44023 71.7188 4.43026 70.625C3.73105 70 3.18723 68.9062 3.18723 68.3594C3.18723 67.8125 3.73105 66.7188 4.43026 66.0938C6.21713 64.2188 46.7712 64.2188 48.5581 66.0938ZM31.1556 77.3438V79.6875H26.4942H21.8328V77.3438V75H26.4942H31.1556V77.3438ZM73.2635 85.8594C75.4388 87.8125 75.7495 88.5938 75.8272 92.2656V96.4844H39.7014H3.57567L3.3426 92.7344C3.10954 89.375 3.3426 88.75 5.75099 86.3281L8.47013 83.5938H39.6238H70.7774L73.2635 85.8594Z" fill="#6366F1" fill-opacity="0.05"/>
<path d="M36.3608 23.2812C33.4863 26.4844 35.5062 31.25 39.7015 31.25C42.4983 31.25 44.3629 29.4531 44.3629 26.6406C44.3629 22.4219 39.0799 20.2344 36.3608 23.2812ZM41.0999 26.7969C41.2553 27.7344 40.8668 28.125 39.7792 28.125C38.8469 28.125 38.1477 27.6562 38.1477 27.1094C38.1477 24.6875 40.6337 24.4531 41.0999 26.7969Z" fill="#6366F1" fill-opacity="0.05"/>
</svg>
