<svg width="79" height="100" viewBox="0 0 79 100" fill="none" xmlns="http://www.w3.org/2000/svg">
<path d="M33.1811 0.725426C31.46 1.11658 26.4533 2.91589 22.0724 4.71519C13.9364 8.0791 12.5283 9.40902 15.1099 11.5212C16.1269 12.3818 16.1269 12.8512 15.1099 15.1199C14.484 16.6845 14.0146 20.3613 14.0146 23.8034C14.0146 28.5755 13.7017 30.1401 12.45 31.7047C11.5895 32.8 10.8854 34.3646 10.8854 35.2251C10.8854 37.1809 14.3276 40.5448 16.3615 40.5448C17.4568 40.5448 17.9262 41.0924 17.9262 42.2659C17.9262 44.6128 22.0724 51.7318 24.5758 53.6875C25.9057 54.7827 26.5315 56.0344 26.5315 57.6773C26.5315 59.7113 26.0621 60.3371 23.2458 61.7453C21.3683 62.684 19.1778 64.2486 18.3173 65.1874C17.3785 66.3609 14.5622 67.6908 11.1201 68.6295C6.89565 69.8812 5.01812 70.8982 3.14058 73.0105C0.167824 76.3744 -0.223329 78.5648 0.0895935 90.2212C0.246055 97.966 0.558977 99.6088 1.49774 99.6088C2.43651 99.6088 2.74943 97.6531 3.06235 88.0307C3.45351 76.5308 3.45351 76.3744 5.64396 74.4968C7.44327 72.9322 16.8309 69.4901 19.3343 69.4901C20.9771 69.4901 21.0554 72.0717 19.4908 73.7928C17.3785 76.0615 17.535 77.3131 20.2731 82.7893L22.62 87.4831H20.7425C19.569 87.4831 18.7085 86.9355 18.4738 85.9185C17.9262 83.8845 16.3615 83.8845 15.8139 85.8403C15.501 87.092 14.6405 87.4831 11.7459 87.6396L8.14734 87.8743V93.7416V99.6088H17.1439C25.9057 99.6088 26.0621 99.6088 26.5315 97.7313L26.9227 95.8538L27.8614 97.966C28.8784 100.078 29.9737 100.548 30.8342 99.2177C31.0689 98.8265 28.9567 93.898 26.1404 88.3436C23.3241 82.711 21.0554 77.7043 21.0554 77.1567C21.0554 76.6873 21.9942 75.2791 23.0894 74.0275L25.2016 71.9152L23.0111 69.0989C21.8377 67.5343 21.0554 66.1262 21.1336 66.0479C22.0724 65.2656 26.7662 63.1534 27.0009 63.4663C27.1574 63.6228 28.1744 66.6738 29.2696 70.2724C30.3648 73.9492 31.5383 77.1567 31.9294 77.5478C33.0247 78.6431 34.511 77.3914 34.0417 75.905C33.6505 74.7315 34.2763 74.5751 39.0484 74.5751C42.4123 74.5751 44.4463 74.888 44.2899 75.3574C44.1334 75.7485 42.9599 79.7383 41.7082 84.1192C40.4566 88.5783 39.2049 92.1769 38.9702 92.1769C38.7355 92.1769 38.0314 90.2212 37.4838 87.8743C36.2321 82.711 34.824 80.4424 33.6505 81.694C32.3988 82.8675 37.4838 99.6088 39.0484 99.6088C39.9089 99.6088 41.7082 94.6803 45.3069 82.3981C48.1232 72.9322 50.6265 64.718 50.8612 64.0922C51.1741 63.2316 51.7218 63.2316 53.9122 64.4051C55.3986 65.1874 56.8067 65.8915 56.9632 66.0479C57.0414 66.1262 56.2591 67.5343 55.0857 69.0989L52.8952 71.9152L55.0074 74.0275C56.1027 75.2791 57.0414 76.6873 57.0414 77.1567C57.0414 77.7043 54.7728 82.711 51.9565 88.3436C47.1844 97.7313 46.5585 100 48.5143 100C49.3748 100 60.1707 78.5648 60.1707 76.7655C60.1707 76.0615 59.4666 74.7315 58.606 73.7928C57.0414 72.0717 57.1197 69.4901 58.7625 69.4901C61.2659 69.4901 70.6535 72.9322 72.4529 74.4968C74.6433 76.3744 74.6433 76.5308 75.0345 88.0307C75.3474 97.6531 75.6603 99.6088 76.5991 99.6088C77.5378 99.6088 77.8508 97.966 78.0072 90.2212C78.3201 78.5648 77.929 76.3744 74.9562 73.0105C73.0787 70.8982 71.2012 69.8812 66.9767 68.6295C63.5346 67.6908 60.7183 66.3609 59.7795 65.1874C58.919 64.2486 56.7285 62.684 54.9292 61.7453C52.0347 60.3371 51.5653 59.7113 51.5653 57.6773C51.5653 56.0344 52.1911 54.7827 53.5211 53.6875C56.0244 51.7318 60.1707 44.6128 60.1707 42.2659C60.1707 41.0924 60.64 40.5448 61.7353 40.5448C63.7693 40.5448 67.2114 37.1809 67.2114 35.2251C67.2114 34.3646 66.5073 32.8 65.6468 31.7047C64.3169 29.9837 64.0822 28.5755 64.0822 20.8307C64.0822 8.8614 61.97 4.87165 54.6163 2.99412C53.1299 2.60296 50.5483 1.82066 48.8272 1.11658C45.3851 -0.213341 38.0314 -0.369797 33.1811 0.725426ZM48.1232 3.77642C49.2184 4.2458 51.2524 5.73219 52.5041 7.0621C54.7728 9.56548 54.851 9.56548 56.0244 8.0791C57.1197 6.51449 57.1979 6.59272 59.0754 8.70495C60.8747 10.7389 60.953 11.443 60.953 20.2831C60.953 28.8102 60.7965 29.6707 59.623 29.436C58.606 29.2796 58.0584 28.1061 57.7455 25.6027C57.1979 21.7694 54.7728 16.3715 52.8952 14.8069C51.9565 14.0246 50.7048 14.1029 46.715 15.1981C40.5348 16.8409 29.4261 17.0756 25.7492 15.5892C22.62 14.3375 17.9262 11.0519 17.9262 10.1131C17.9262 9.56548 30.9907 4.16757 33.9634 3.54173C37.1709 2.83765 46.0109 2.99412 48.1232 3.77642ZM24.5758 18.0144C28.9567 19.8137 38.7355 20.1266 44.1334 18.7967C51.8 16.8409 51.2524 16.7627 53.0517 20.4395C53.9904 22.3171 54.6945 25.0551 54.6945 26.5415C54.7728 30.2966 56.4156 32.1741 60.3271 32.6435C62.987 33.0346 63.7693 33.4258 63.9257 34.7557C64.2386 36.7115 62.0482 37.8849 60.4836 36.555C58.8407 35.2251 58.0584 36.2421 57.5108 40.4665C56.885 45.1604 53.6775 50.1671 49.2966 53.1399C38.2661 60.4936 22.3071 53.4528 20.586 40.4665C20.0384 36.2421 19.2561 35.2251 17.535 36.6333C15.8922 38.0414 13.8582 36.9462 14.1711 34.9122C14.3276 33.4258 15.0316 33.0346 17.7697 32.6435C22.1506 32.0959 23.4805 30.2966 23.1676 25.2898C23.0894 22.3953 22.6982 21.3783 21.8377 21.3783C20.9772 21.3783 20.586 22.4735 20.2731 25.2898C19.9602 28.1844 19.569 29.2796 18.552 29.436C17.3003 29.6707 17.1439 28.9667 17.1439 23.8817C17.1439 16.9192 17.6132 15.1981 19.4125 15.9804C20.1166 16.2151 22.4635 17.2321 24.5758 18.0144ZM43.7422 58.3813L48.4361 57.2079V59.0854C48.4361 60.1024 47.8885 62.9969 47.1844 65.5003C45.698 70.6635 44.2116 71.837 39.0484 71.837C33.8852 71.837 32.3988 70.6635 30.9124 65.5003C30.2084 62.9969 29.6607 60.1024 29.6607 59.0854V57.2079L34.3546 58.3813C38.5008 59.3983 39.596 59.3983 43.7422 58.3813ZM16.2051 91.5511C16.9092 92.2552 17.3785 92.2552 18.0826 91.5511C18.6302 91.0035 20.0384 90.6123 21.2118 90.6123C23.2458 90.6123 23.4023 90.847 23.4023 93.7416V96.8708H17.1439H10.8854V93.7416C10.8854 90.847 11.0419 90.6123 13.0759 90.6123C14.2493 90.6123 15.6575 91.0035 16.2051 91.5511Z" fill="#6366F1" fill-opacity="0.05"/>
<path d="M26.9227 27.2455C26.0621 28.6537 27.705 29.7489 30.1301 29.436C33.2593 29.1231 33.1029 26.9326 29.8954 26.6197C28.5655 26.4632 27.2356 26.7761 26.9227 27.2455Z" fill="#6366F1" fill-opacity="0.05"/>
<path d="M45.698 27.2455C44.8375 28.6537 46.4803 29.7489 48.9055 29.436C52.0347 29.1231 51.8782 26.9326 48.6708 26.6197C47.3408 26.4632 46.0109 26.7761 45.698 27.2455Z" fill="#6366F1" fill-opacity="0.05"/>
<path d="M28.409 32.2523C27.7832 33.9733 28.6437 36.0856 29.8954 35.6162C30.3648 35.4597 30.8342 34.521 30.8342 33.504C30.8342 31.3917 29.1131 30.453 28.409 32.2523Z" fill="#6366F1" fill-opacity="0.05"/>
<path d="M47.1844 32.2523C46.5585 33.9733 47.4191 36.0856 48.6708 35.6162C49.1401 35.4597 49.6095 34.521 49.6095 33.504C49.6095 31.3917 47.8885 30.453 47.1844 32.2523Z" fill="#6366F1" fill-opacity="0.05"/>
<path d="M33.1811 42.8135C32.3988 44.1434 33.4158 45.1604 36.545 46.0992C38.9702 46.8032 40.0654 46.725 42.4905 45.708C45.4633 44.4563 46.0892 42.2659 43.2729 42.8135C40.613 43.2829 36.3103 43.2046 35.0586 42.5788C34.2763 42.2659 33.494 42.3441 33.1811 42.8135Z" fill="#6366F1" fill-opacity="0.05"/>
<path d="M63.8475 84.8233C63.5346 85.1362 63.2999 85.9968 63.2999 86.7791C63.2999 87.6396 62.5958 88.2655 61.5788 88.4219C59.3101 88.7349 59.2319 90.9253 61.5006 91.2382C62.5958 91.3947 63.2999 92.0988 63.4563 93.194C63.7693 95.4627 65.9597 95.4627 66.2726 93.194C66.4291 92.0988 67.1332 91.3947 68.2284 91.2382C69.1672 91.0818 69.9495 90.4559 69.9495 89.8301C69.9495 89.2042 69.1672 88.5784 68.2284 88.4219C67.2114 88.2655 66.4291 87.4832 66.2726 86.5444C66.038 84.8233 64.7863 83.9628 63.8475 84.8233Z" fill="#6366F1" fill-opacity="0.05"/>
</svg>
