<svg width="100" height="100" viewBox="0 0 100 100" fill="none" xmlns="http://www.w3.org/2000/svg">
<path d="M41.7969 1.95312C39.2969 4.375 39.2969 7.34375 41.875 9.84375C44.9219 12.9688 44.1406 14.7656 38.9844 16.4062C36.6406 17.1094 33.5938 18.3594 32.2656 19.1406C28.8281 21.1719 27.3438 20.3125 27.3438 16.1719C27.3438 12.0312 25.625 10.1562 21.875 10.1562C19.6875 10.1562 18.3594 10.9375 14.6875 14.6094C10.8594 18.4375 10.1562 19.5312 10.1562 21.9531C10.1562 25.625 12.1094 27.3438 16.3281 27.3438C20.3125 27.3438 21.1719 28.8281 19.1406 32.2656C18.3594 33.5938 17.1094 36.6406 16.4062 38.9844C14.6094 44.8438 13.2812 45.5469 10.3125 42.3438C7.42188 39.2969 4.60938 39.0625 1.95312 41.7969C0.234375 43.5156 0 44.2969 0 50C0 55.7031 0.234375 56.4844 1.95312 58.2031C4.375 60.7031 7.34375 60.7031 9.84375 58.125C12.9688 55.0781 14.7656 55.8594 16.4062 61.0156C17.1094 63.3594 18.3594 66.4062 19.1406 67.7344C21.1719 71.1719 20.3125 72.6562 16.1719 72.6562C12.0312 72.6562 10.1562 74.375 10.1562 78.125C10.1562 80.3125 10.9375 81.6406 14.6094 85.3125C18.4375 89.1406 19.5312 89.8438 21.9531 89.8438C25.625 89.8438 27.3438 87.8906 27.3438 83.6719C27.3438 79.6875 28.8281 78.8281 32.2656 80.8594C33.5938 81.6406 36.6406 82.8906 38.9844 83.5938C44.1406 85.2344 44.9219 87.0312 41.875 90.1562C39.2969 92.6562 39.2969 95.625 41.7969 98.0469C43.5156 99.7656 44.2969 100 50 100C55.7031 100 56.4844 99.7656 58.2031 98.0469C60.7031 95.625 60.7031 92.6562 58.125 90.1562C55.0781 87.0312 55.8594 85.2344 61.0156 83.5938C63.3594 82.8906 66.4062 81.6406 67.7344 80.8594C71.1719 78.8281 72.6562 79.6875 72.6562 83.8281C72.6562 87.9688 74.375 89.8438 78.0469 89.8438C80.0781 89.8438 81.5625 88.9062 85.2344 85.3906C89.2188 81.5625 89.8438 80.625 89.8438 78.125C89.8438 74.375 87.9688 72.6562 83.6719 72.6562C79.6875 72.6562 78.8281 71.1719 80.8594 67.7344C81.6406 66.4062 82.8906 63.3594 83.5938 61.0156C85.2344 55.8594 87.0312 55.0781 90.1562 58.125C92.6562 60.7031 95.625 60.7031 98.0469 58.2031C99.7656 56.4844 100 55.7031 100 50C100 44.2969 99.7656 43.5156 98.0469 41.7969C95.3906 39.0625 92.5781 39.2969 89.6875 42.3438C86.7188 45.5469 85.3906 44.8438 83.5938 38.9844C82.8906 36.6406 81.6406 33.5938 80.8594 32.2656C78.8281 28.8281 79.6875 27.3438 83.8281 27.3438C87.9688 27.3438 89.8438 25.625 89.8438 21.875C89.8438 19.6875 89.0625 18.3594 85.3906 14.6875C81.5625 10.8594 80.4688 10.1562 78.0469 10.1562C74.375 10.1562 72.6562 12.1094 72.6562 16.3281C72.6562 20.3125 71.1719 21.1719 67.7344 19.1406C66.4062 18.3594 63.3594 17.1094 61.0156 16.4062C55.8594 14.7656 55.0781 12.9688 58.125 9.84375C60.7031 7.34375 60.7031 4.375 58.2031 1.95312C56.4844 0.234375 55.7031 0 50 0C44.2969 0 43.5156 0.234375 41.7969 1.95312ZM56.0938 5.625C56.25 6.5625 55.7031 7.26562 54.4531 7.73438C52.1094 8.67188 51.3281 11.3281 52.4219 15C53.0469 17.5 53.6719 18.0469 57.2656 19.2188C59.4531 19.9219 62.9688 21.3281 65 22.3438C70 24.8438 72.6562 24.7656 75.3125 21.9531C77.1094 20.0781 77.3438 19.2969 76.9531 16.875C76.4844 14.4531 76.5625 14.0625 77.8906 14.0625C79.7656 14.0625 85.9375 20.3125 85.9375 22.1875C85.9375 23.4375 85.5469 23.5156 83.125 23.0469C80.7031 22.6562 79.9219 22.8906 78.0469 24.6875C75.2344 27.3438 75.1562 30 77.6562 35C78.6719 37.0312 80.0781 40.4688 80.7812 42.7344C81.9531 46.1719 82.5 46.875 84.8438 47.6562C88.4375 48.9062 91.25 48.0469 92.1875 45.625C92.7344 44.375 93.4375 43.75 94.375 43.9062C95.4688 44.1406 95.7031 45.0781 95.7031 50C95.7031 54.9219 95.4688 55.8594 94.375 56.0938C93.4375 56.25 92.7344 55.625 92.1875 54.375C91.5625 52.5781 91.0156 52.3438 87.7344 52.3438C85.625 52.3438 83.5156 52.6562 83.0469 52.9688C82.5 53.2812 81.4062 55.5469 80.5469 57.8906C79.7656 60.2344 78.3594 63.6719 77.4219 65.4688C75.1562 69.9219 75.3125 72.6562 78.0469 75.3125C79.9219 77.1094 80.7031 77.3438 83.125 76.9531C85.5469 76.4844 85.9375 76.5625 85.9375 77.8906C85.9375 79.7656 79.6875 85.9375 77.8125 85.9375C76.5625 85.9375 76.4844 85.5469 76.9531 83.125C77.3438 80.7031 77.1094 79.9219 75.3125 78.0469C72.6562 75.2344 70 75.1562 65 77.6562C62.9688 78.6719 59.4531 80.0781 57.2656 80.7812C53.6719 81.9531 53.0469 82.5 52.4219 85C51.3281 88.6719 52.1094 91.3281 54.4531 92.2656C55.7031 92.7344 56.25 93.4375 56.0938 94.375C55.8594 95.4688 54.9219 95.7031 50 95.7031C45.0781 95.7031 44.1406 95.4688 43.9062 94.375C43.75 93.4375 44.2969 92.7344 45.5469 92.2656C47.8906 91.3281 48.6719 88.6719 47.5781 85C46.9531 82.5 46.3281 81.9531 42.7344 80.7812C40.5469 80.0781 37.0312 78.6719 35 77.6562C30 75.1562 27.3438 75.2344 24.6875 78.0469C22.8906 79.9219 22.6562 80.7031 23.0469 83.125C23.5156 85.5469 23.4375 85.9375 22.1875 85.9375C20.3125 85.9375 14.0625 79.7656 14.0625 77.8906C14.0625 76.5625 14.4531 76.4844 16.875 76.9531C19.2969 77.3438 20.0781 77.1094 21.9531 75.3125C24.6875 72.6562 24.8438 69.9219 22.5781 65.4688C21.6406 63.6719 20.2344 60.2344 19.4531 57.8906C18.5938 55.5469 17.5 53.2812 16.9531 52.9688C16.4844 52.6562 14.375 52.3438 12.2656 52.3438C8.98438 52.3438 8.4375 52.5781 7.8125 54.375C7.26562 55.625 6.5625 56.25 5.625 56.0938C4.53125 55.8594 4.29688 54.9219 4.29688 50C4.29688 45.0781 4.53125 44.1406 5.625 43.9062C6.5625 43.75 7.26562 44.375 7.8125 45.625C8.75 48.125 11.5625 48.9062 15.1562 47.6562C17.5781 46.875 18.125 46.25 19.0625 43.0469C19.6875 41.0156 21.0938 37.5 22.1875 35.3125C24.8438 30.0781 24.8438 27.4219 21.9531 24.6875C20.0781 22.8906 19.2969 22.6562 16.875 23.0469C14.4531 23.5156 14.0625 23.4375 14.0625 22.1094C14.0625 20.2344 20.3125 14.0625 22.1875 14.0625C23.4375 14.0625 23.5156 14.4531 23.0469 16.875C22.6562 19.2969 22.8906 20.0781 24.6875 21.9531C27.4219 24.8438 30.0781 24.8438 35.3125 22.1875C37.5 21.0938 41.0156 19.6094 43.0469 19.0625C46.4844 18.0469 46.875 17.5781 47.6562 14.9219C48.5938 11.4062 47.5781 7.8125 45.7812 7.8125C44.2969 7.8125 43.5156 6.48438 44.0625 5C44.375 4.0625 45.7031 3.90625 50.1562 4.0625C54.8438 4.21875 55.8594 4.53125 56.0938 5.625Z" fill="#6366F1" fill-opacity="0.05"/>
<path d="M40.0781 25.9374C34.2969 27.4999 32.4219 34.8437 36.6406 39.1405C41.3281 43.7499 49.2188 41.2499 50.4688 34.7655C51.4844 29.0624 46.0156 24.2968 40.0781 25.9374ZM46.25 31.5624C48.0469 34.1405 45.7812 37.4999 42.2656 37.4999C39.4531 37.4999 38.125 35.8593 38.4375 33.0468C38.9062 29.2187 44.0625 28.203 46.25 31.5624Z" fill="#6366F1" fill-opacity="0.05"/>
<path d="M59.375 33.5938C59.375 34.8438 59.7656 35.2344 61.1719 35C62.1094 34.8438 62.8906 34.2188 62.8906 33.5938C62.8906 32.9688 62.1094 32.3438 61.1719 32.1875C59.7656 31.9531 59.375 32.3438 59.375 33.5938Z" fill="#6366F1" fill-opacity="0.05"/>
<path d="M63.0469 44.8436C62.5 46.1718 63.9063 47.6561 65.7031 47.6561C67.5 47.6561 70.9375 51.0155 71.5625 53.4374C72.8125 58.4374 69.0625 63.2811 63.9063 63.2811C59.6094 63.2811 57.8906 62.1093 56.0938 58.1249C54.2188 53.9061 51.875 53.5936 52.0313 57.578C52.1875 60.6249 54.8438 64.453 57.8125 66.0155C61.1719 67.7343 66.875 67.4999 70.1563 65.4686C72.9688 63.7499 75.7813 58.828 75.7813 55.4686C75.7813 52.1093 72.9688 47.1874 70.1563 45.4686C67.0313 43.5155 63.6719 43.203 63.0469 44.8436Z" fill="#6366F1" fill-opacity="0.05"/>
<path d="M55.7031 46.6406C54.0625 47.2656 54.5312 50 56.1718 50C57.0312 50 57.9687 49.6094 58.2812 49.1406C58.9062 48.0469 56.9531 46.1719 55.7031 46.6406Z" fill="#6366F1" fill-opacity="0.05"/>
<path d="M26.5625 50C26.5625 51.0156 27.1094 51.5625 28.125 51.5625C29.1406 51.5625 29.6875 51.0156 29.6875 50C29.6875 48.9844 29.1406 48.4375 28.125 48.4375C27.1094 48.4375 26.5625 48.9844 26.5625 50Z" fill="#6366F1" fill-opacity="0.05"/>
<path d="M32.2656 57.3437C30.5469 58.828 30.0781 59.8437 30.0781 62.4218C30.0781 66.328 32.1094 68.5937 36.0156 69.2187C42.4219 70.3124 46.4062 62.0312 41.7969 57.4218C39.2969 54.8437 35.2344 54.8437 32.2656 57.3437ZM39.6875 61.5624C40.2344 65.4687 35.8594 67.1874 34.2188 63.6718C33.125 61.1718 34.6094 59.2187 37.4219 59.5312C38.8281 59.6874 39.5312 60.3124 39.6875 61.5624Z" fill="#6366F1" fill-opacity="0.05"/>
<path d="M48.9844 71.5625C47.7344 72.8125 48.4375 75 50.0781 75C51.25 75 51.6406 74.6094 51.4062 73.2812C51.1719 71.5625 49.9219 70.7031 48.9844 71.5625Z" fill="#6366F1" fill-opacity="0.05"/>
</svg>
