<svg width="80" height="80" viewBox="0 0 80 80" fill="none" xmlns="http://www.w3.org/2000/svg">
<path d="M50.4153 0.47509C50.1654 0.662571 49.9779 2.53738 49.9779 4.53717C49.9779 7.84933 49.8529 8.22429 48.478 8.78673C46.1658 9.66164 45.6033 11.2865 45.6033 17.1609C45.6033 23.4102 45.8533 24.1601 48.1656 25.41C49.4779 26.0974 49.9779 26.7849 49.9779 28.0347C49.9779 30.1595 49.4779 30.7845 47.3532 31.7219C44.3535 33.0967 45.8533 36.2214 49.103 35.409C51.8527 34.7215 53.7275 32.0968 53.7275 29.0346C53.7275 26.6599 53.9775 26.2224 55.5398 25.41C57.8521 24.1601 58.102 23.4102 58.102 17.1609C58.102 11.2865 57.5396 9.66164 55.2273 8.78673C53.915 8.28679 53.665 7.78684 53.8525 6.162L54.04 4.09972H58.4145H62.7891L62.9765 19.5981C63.1015 32.6593 63.289 35.159 64.0389 35.409C64.6014 35.659 65.4138 35.4715 65.9137 35.034C66.7261 34.4091 66.8511 31.5969 66.8511 17.9108C66.8511 6.03702 66.6637 1.35 66.1012 0.78756C65.2888 -0.0248566 51.1653 -0.337326 50.4153 0.47509ZM53.7275 17.2859V21.9729L51.7277 21.7854C49.6654 21.5979 49.6654 21.5979 49.4779 17.9108C49.228 13.2238 49.5404 12.5363 51.8527 12.5363H53.7275V17.2859Z" fill="white" fill-opacity="0.1"/>
<path d="M12.4818 24.0977C11.4819 24.6601 9.98202 24.8476 8.35719 24.5977C5.04503 24.1602 2.17033 25.66 0.795471 28.4098C-1.07933 32.4718 -0.266919 33.8467 10.1695 44.2831L19.6685 53.7821L45.2909 53.6571L70.9132 53.4697V51.9073V50.345L46.1658 50.1575L21.4808 50.0325L12.6067 41.0959C7.73225 36.159 3.73267 31.7844 3.73267 31.4094C3.73267 30.3471 6.04493 28.1598 7.23231 28.1598C7.79475 28.1598 11.7943 31.6594 16.1064 35.9715L23.9806 43.7832H49.103C70.9132 43.7832 74.2879 43.9082 74.9753 44.7206C75.4128 45.283 75.9752 47.4703 76.1627 49.5951C76.5376 53.2197 76.6626 53.4697 78.1 53.4697C79.5998 53.4697 79.6623 53.3447 79.6623 48.6577C79.6623 44.4706 79.4748 43.6582 78.1625 42.2833C77.2876 41.4084 75.6002 40.4085 74.4129 40.0336C73.1005 39.6586 62.914 39.4086 50.4778 39.4086H28.7926L29.105 37.5338C29.7925 34.2842 28.7926 31.5344 25.7929 28.1598C24.2305 26.41 22.1683 24.5977 21.1684 24.0977C18.9811 22.9103 14.544 22.9103 12.4818 24.0977ZM19.2311 27.7848C21.4808 28.9722 24.1056 31.7844 24.918 33.8467C25.5429 35.534 25.2304 38.1588 24.418 38.1588C24.2305 38.1588 21.6683 35.784 18.7936 32.9093C14.544 28.5972 13.7941 27.5973 14.7315 27.3474C16.7938 26.8474 17.4812 26.9099 19.2311 27.7848Z" fill="white" fill-opacity="0.1"/>
<path d="M6.16991 50.1574C5.17002 51.9698 5.91994 57.4067 7.35729 59.4065C9.04462 61.6563 11.1069 62.5312 14.8565 62.5312C17.7312 62.5312 18.1062 62.6562 18.1062 63.781C18.1062 64.531 16.9813 66.1558 15.6064 67.4682C13.5441 69.4055 13.1067 70.2804 13.1067 72.1552C13.1067 75.2174 14.544 77.9046 16.8563 79.092C21.9808 81.7792 27.4802 78.217 27.4802 72.1552C27.4802 70.2804 27.0428 69.4055 24.9805 67.4682C23.6056 66.1558 22.4807 64.531 22.4807 63.781C22.4807 62.5312 22.7932 62.5312 42.7911 62.5312H63.1015V63.906C63.1015 64.8434 62.4141 65.7183 61.2892 66.4058C57.1646 68.718 56.4772 74.155 59.7269 77.5921C64.1639 82.2166 71.8506 79.2794 71.8506 73.0301C71.8506 69.9679 70.5383 67.3432 68.476 66.4058C67.3511 65.9058 66.8511 65.2184 66.8511 64.156C66.8511 62.5937 66.9136 62.5937 72.8505 62.4062C77.7875 62.2812 79.0374 62.0312 79.5998 61.1563C80.0373 60.4064 80.0373 59.8439 79.5998 59.4065C79.1624 58.969 68.5385 58.7191 46.1658 58.7191C21.4808 58.7191 12.9817 58.5316 11.8568 57.9691C10.5445 57.2817 10.2945 56.6568 10.107 53.7821C9.85703 48.9701 7.79474 47.0953 6.16991 50.1574ZM22.8557 70.9678C25.1055 74.3424 21.0434 77.4046 17.9812 74.5924C16.5438 73.2801 16.5438 72.2177 18.1062 70.6553C19.7935 68.968 21.6058 69.093 22.8557 70.9678ZM67.1636 70.6553C68.8509 72.4676 67.7885 75.2798 65.4138 75.5298C63.164 75.7798 61.8517 74.7174 61.8517 72.4676C61.8517 69.5304 65.1638 68.4056 67.1636 70.6553Z" fill="white" fill-opacity="0.1"/>
</svg>
