<svg width="82" height="80" viewBox="0 0 82 80" fill="none" xmlns="http://www.w3.org/2000/svg">
<path d="M39.5556 1.01588C39.0476 2.34921 40.381 3.68255 41.3333 2.73017C42.1587 1.90477 41.6508 8.58307e-06 40.6349 8.58307e-06C40.254 8.58307e-06 39.8095 0.444453 39.5556 1.01588Z" fill="white" fill-opacity="0.1"/>
<path d="M19.873 5.46037C19.619 6.15878 21.3333 8.31751 25.4603 12.4445C28.6984 15.7461 31.746 18.4128 32.254 18.4128C32.6984 18.4128 33.2063 17.9683 33.4603 17.3969C33.7143 16.6985 32 14.5397 27.873 10.4128C24.6349 7.11116 21.5873 4.4445 21.0793 4.4445C20.6349 4.4445 20.127 4.88894 19.873 5.46037Z" fill="white" fill-opacity="0.1"/>
<path d="M53.3968 10.4128C49.2698 14.5397 47.5556 16.6985 47.8095 17.3969C48.0635 17.9683 48.5714 18.4128 49.0159 18.4128C49.5238 18.4128 52.5714 15.7461 55.8095 12.4445C59.9365 8.31751 61.6508 6.15878 61.3968 5.46037C61.1429 4.88894 60.6349 4.4445 60.1905 4.4445C59.6825 4.4445 56.6349 7.11116 53.3968 10.4128Z" fill="white" fill-opacity="0.1"/>
<path d="M39.3651 7.55555C38.6667 8.88888 38.4762 15.746 39.1111 17.3968C39.6191 18.7302 41.6508 18.7302 42.1587 17.3968C42.3492 16.8254 42.5397 14.6667 42.5397 12.6349C42.5397 8.82539 41.7778 6.3492 40.6349 6.3492C40.3175 6.3492 39.746 6.92063 39.3651 7.55555Z" fill="white" fill-opacity="0.1"/>
<path d="M14.4762 17.5873C11.0476 21.3968 0 35.3651 0 36C0 36.381 1.90476 38.3492 4.19048 40.381C6.53968 42.4127 9.90476 46.0952 11.746 48.5079C15.1111 52.9524 15.1111 53.0159 14.4127 55.6825C13.8413 57.9048 13.9048 58.5397 14.8571 59.9365C15.4286 60.8889 16.6349 61.9683 17.5238 62.3492C18.5397 62.7937 19.0476 63.5556 19.0476 64.5714C19.0476 66.4127 21.7143 69.2064 23.4921 69.2064C24.3175 69.2064 24.7619 69.6508 24.7619 70.4762C24.7619 72.3175 27.5556 74.9206 29.5238 74.9206C30.4127 74.9206 31.1111 75.1746 31.1111 75.4921C31.1111 75.8095 31.873 76.9524 32.7619 78.0317C34.0317 79.5556 34.9206 80 36.6984 80C37.9048 80 39.4921 79.5556 40.127 78.9206C41.0794 78.0952 41.5873 78.0317 42.9206 78.6032C46.6667 80.3175 51.4286 78.2857 51.4286 74.9206C51.4286 74.0952 51.873 73.6508 52.6984 73.6508C54.4127 73.6508 57.1429 70.9206 57.1429 69.2064C57.1429 68.381 57.5873 67.9365 58.4127 67.9365C60.127 67.9365 62.8571 65.2064 62.8571 63.4921C62.8571 62.6667 63.3016 62.2222 64.127 62.2222C64.8889 62.2222 66.2222 61.4603 67.1111 60.5714C68.5079 59.1746 68.6984 58.5397 68.381 56.0635C68.127 53.6508 68.5079 52.381 70.5397 47.9365C72.6349 43.5556 73.6508 42.2222 77.1429 39.3016C79.3651 37.3968 81.2698 35.5556 81.2698 35.1746C81.2698 34.1587 67.3651 16.254 66.3492 16C65.9048 15.873 63.4921 17.0794 61.0159 18.6667L56.5079 21.5873H50.6667C46.7302 21.5873 43.3651 22.0317 40.1905 22.9206L35.5556 24.1905L31.0476 22.9206C28.5714 22.2222 24.5079 20.381 21.9048 18.7937C19.3651 17.1429 17.0159 15.873 16.6984 15.873C16.381 15.873 15.3651 16.6349 14.4762 17.5873ZM20.381 21.6508L23.4286 23.5556L16.381 32.127L9.33333 40.6349L6.73016 38.2857C5.33333 36.9524 4.19048 35.6825 4.25397 35.4286C4.50794 34.7937 16.7619 19.6825 17.0794 19.6825C17.2063 19.6825 18.7302 20.5714 20.381 21.6508ZM71.746 27.3016C77.9682 35.3651 77.9048 35.0476 73.5238 38.1587L71.8095 39.4286L65.7143 31.8095C62.4127 27.5556 59.6825 23.9365 59.6825 23.6825C59.6825 23.0476 64.8889 19.746 65.5873 19.9365C65.9048 20 68.6349 23.3016 71.746 27.3016ZM62.9206 33.3968L69.7143 42.0317L67.8095 46.2857C66.7302 48.5714 65.7778 50.6032 65.6508 50.7937C65.4603 50.9206 61.2698 46.9841 56.3175 42.0317L47.3016 33.0794L42.1587 32.6349L37.0159 32.1905L34.2857 37.0159C31.4921 41.9048 30.6032 42.7937 28.8889 42.1587C26.9206 41.3968 27.2381 39.4286 30.4127 33.8413L33.6508 28.254L38.8571 26.5397C42.9206 25.2698 45.5238 24.8889 50.1587 24.8254L56.1905 24.7619L62.9206 33.3968ZM29.9683 25.9048C30.8571 26.2857 30.5397 27.1746 27.5556 32.381C25.7143 35.6825 24.127 38.9206 24.127 39.5556C24.127 41.6508 25.9683 44.3175 27.9365 44.9524C31.3016 46.1587 33.3333 44.8889 36.254 39.873L38.8571 35.4286L42.4762 35.873L46.0317 36.254L55.746 45.9048C63.6825 53.8413 65.3968 55.8095 65.2698 57.1429C65.1429 58.2857 64.6349 58.7937 63.4921 58.9206C62.2222 59.0476 60.7619 57.9048 56.1905 53.3333C50.4762 47.5556 49.1429 46.7937 48.4444 48.6349C48.1905 49.3333 49.8413 51.4286 53.9048 55.4921C58.5397 60.1905 59.746 61.7143 59.5556 62.9206C59.4286 63.9365 58.8571 64.5079 57.8413 64.6349C56.6984 64.8254 55.3016 63.873 52 60.5714C47.9365 56.5079 47.5556 56.3175 46.6032 57.2698C45.5873 58.2857 45.8413 58.6667 49.7778 62.7937C53.0159 66.0952 54.0317 67.5556 53.8413 68.6984C53.5238 71.2381 51.1111 70.9206 47.8095 67.9365C45.2063 65.4603 44.8889 65.3333 43.9365 66.2857C42.9841 67.2381 43.1111 67.4921 45.6508 70.0952C48.9524 73.4603 49.1429 75.873 46.0317 75.873C44.3175 75.873 44.127 75.6825 44.3175 74.0317C44.6349 71.3651 43.3016 68.6349 41.2063 67.5556C40.0635 66.9841 39.3651 66.0952 39.3651 65.3333C39.3651 63.1746 38.0952 61.5238 35.8095 60.5714C34.4127 60 33.6508 59.2381 33.6508 58.4762C33.6508 56.8889 30.7302 54.6032 28.8254 54.6032C27.8095 54.6032 27.0476 53.9683 26.4127 52.7619C25.1429 50.4127 22.2857 49.3333 19.619 50.2857C18.6032 50.6667 17.5873 50.7937 17.3968 50.6032C16.254 49.5238 12.0635 43.4921 12.0635 42.9841C12.0635 42.4127 12.6984 41.5873 21.5238 30.9206C26.0952 25.3968 27.1111 24.7619 29.9683 25.9048ZM23.1111 53.7143C24.5079 55.1111 24.381 55.873 22.4127 57.9048C20.5079 59.873 18.9841 60.1905 17.7778 58.7302C16.7619 57.5238 17.4603 55.5556 19.4921 53.9683C21.4603 52.4444 21.8413 52.381 23.1111 53.7143ZM30.3492 59.619C30.5397 60.6349 29.8413 61.8413 28.1905 63.5556C25.6508 66.1587 23.3016 66.7937 22.6032 65.0159C21.9683 63.3651 22.1587 62.9841 24.5714 60.3175C27.2381 57.2698 29.9683 56.9524 30.3492 59.619ZM36.0635 65.3333C36.254 66.3492 35.5556 67.5556 33.9048 69.2698C31.3651 71.873 29.0159 72.5079 28.3175 70.7302C27.6825 69.0794 27.873 68.6984 30.2857 66.0317C32.9524 62.9841 35.6825 62.6667 36.0635 65.3333ZM40.9524 71.8095C41.2698 72.7619 40.8889 73.6508 39.619 74.9841C37.7143 76.9524 36.254 77.2698 35.0476 76.0635C33.9683 74.9841 34.0952 74.0317 35.619 72.127C37.2698 70.0317 40.3175 69.8413 40.9524 71.8095Z" fill="white" fill-opacity="0.1"/>
</svg>
