<svg width="60" height="80" viewBox="0 0 60 80" fill="none" xmlns="http://www.w3.org/2000/svg">
<path d="M28.3275 0.919378C27.8895 2.0458 28.5152 3.10965 29.6417 3.10965C30.5804 3.10965 31.1436 1.92065 30.7681 0.731641C30.3926 -0.332206 28.7656 -0.207047 28.3275 0.919378Z" fill="white" fill-opacity="0.1"/>
<path d="M19.5664 1.79552C7.23833 5.92574 -0.646647 17.8784 0.0417242 31.2077C0.417199 37.9037 2.10684 42.5346 6.29964 47.979L9.36602 52.0466L4.61 60.4948C0.104303 68.3172 -0.646647 70.7578 1.29331 70.6952C1.73136 70.6326 3.92163 70.2571 6.17448 69.7565C12.8705 68.3172 12.495 68.1294 14.6227 74.2622C15.8743 77.8918 16.8755 79.8318 17.5639 79.9569C18.3148 80.0821 19.8793 77.8292 23.3212 71.759C25.9495 67.1282 28.4527 62.9354 28.8907 62.3096C29.5165 61.4335 30.2675 62.4347 34.2725 69.5062C36.8383 74.0119 39.404 78.2673 40.0298 79.0182C41.0311 80.2072 41.2188 80.2698 42.0324 79.4563C42.533 78.9556 43.722 76.3273 44.6607 73.6364C46.6006 68.192 46.4755 68.2546 53.0463 69.7565C57.4268 70.8204 58.741 70.6326 58.741 69.1933C58.741 68.6301 56.6133 64.4999 54.1101 59.9316L49.4167 51.6711L51.9199 48.9802C53.2966 47.4783 55.2366 44.5371 56.2378 42.472C63.7473 26.5769 56.1127 8.17859 39.4666 1.85809C36.2751 0.606506 34.5229 0.981987 35.1486 2.7342C35.399 3.29742 36.0873 3.9232 36.6505 4.11095C40.4053 5.17479 45.8497 8.61665 48.7283 11.6204C63.3719 27.0775 54.7359 52.2343 33.459 55.8639C22.1322 57.8039 10.7428 51.7337 5.48611 40.9701C3.48358 36.7773 3.35842 36.2766 3.35842 29.7058C3.35842 23.5105 3.54616 22.4466 5.11064 19.1299C8.36476 12.1211 14.0595 6.80185 20.6929 4.61158C22.8205 3.9232 23.6967 3.29742 23.6967 2.48389C23.6967 0.731667 23.0083 0.606506 19.5664 1.79552ZM22.6954 58.4923C24.0721 58.7426 25.574 59.118 25.9495 59.3684C26.4501 59.6187 25.1986 62.3722 22.3825 67.1908C18.1271 74.6377 18.1271 74.6377 17.4387 72.8229C15.1233 66.565 14.6227 65.5637 13.9969 65.3134C13.6214 65.1256 11.4311 65.4385 9.11571 65.9392C6.80028 66.3772 4.9229 66.6275 4.9229 66.5024C4.9229 66.3147 6.48738 63.436 8.36476 60.0567L11.8692 53.924L15.9994 56.0517C18.2523 57.1781 21.2561 58.3045 22.6954 58.4923ZM50.7309 60.2445C52.6708 63.7489 54.1727 66.6901 54.1101 66.7527C54.1101 66.8153 52.2328 66.4398 49.9799 66.0018C47.7271 65.5011 45.5994 65.1256 45.1613 65.0631C44.7858 65.0631 43.8472 66.6901 43.1588 68.6301C42.4078 70.6326 41.5943 72.8229 41.344 73.4487C40.9059 74.4499 40.0298 73.3235 36.6505 67.2533C34.3351 63.1857 32.5203 59.7438 32.6455 59.6187C32.7706 59.4935 34.5229 58.9929 36.5254 58.4297C38.5279 57.929 41.5943 56.6775 43.3465 55.7388C45.0987 54.7375 46.6632 53.924 46.851 53.8614C47.0387 53.8614 48.7283 56.74 50.7309 60.2445Z" fill="white" fill-opacity="0.1"/>
<path d="M22.1322 7.55281C12.3698 10.9947 6.1745 19.568 6.1745 29.7058C6.1745 40.0314 12.4324 48.5422 22.4451 51.9215C33.7093 55.7388 46.9135 49.4809 51.2941 38.2792C53.234 33.3354 53.234 26.0763 51.2941 21.1325C46.9135 9.86825 33.3339 3.54775 22.1322 7.55281ZM38.3402 11.4953C46.7884 15.6255 51.4193 25.3879 49.1038 34.2741C47.4768 40.8449 43.4717 45.6635 37.5267 48.417C33.1461 50.4196 25.7618 50.2318 21.1309 48.1041C16.813 46.039 13.1834 42.5346 11.1183 38.4044C9.86667 35.8386 9.61635 34.3993 9.61635 29.7058C9.61635 25.0124 9.86667 23.5731 11.1183 21.0073C13.684 15.7507 19.0658 11.3701 24.6354 9.93082C28.265 8.99214 34.7106 9.68051 38.3402 11.4953Z" fill="white" fill-opacity="0.1"/>
<path d="M26.5753 18.6294L24.385 22.9473L19.8793 23.6357C17.3761 24.0112 15.1233 24.6995 14.873 25.1376C14.4975 25.7008 15.4362 27.0775 17.689 29.393L21.0057 32.8348L20.3799 37.4031C19.5038 43.4107 19.9419 43.7862 24.8231 41.3456C26.9508 40.2818 29.0159 39.4056 29.4539 39.4056C29.892 39.4056 31.9571 40.3443 34.1474 41.4082C39.2163 44.0991 39.7795 43.661 38.7156 37.5283L37.9647 33.0226L41.2188 29.7059C44.9736 25.8885 45.0361 24.6995 41.4065 24.0112C34.3977 22.8222 34.7731 23.0099 32.4577 18.7545C31.2687 16.5642 29.9546 14.6869 29.5165 14.5617C29.0784 14.374 27.8269 16.1888 26.5753 18.6294ZM33.5216 25.826C34.1474 26.0137 35.7118 26.3266 37.0886 26.5769L39.5292 26.9524L37.1512 29.393C34.8357 31.771 34.7731 31.8961 35.2112 35.2754L35.5867 38.7173L32.708 37.0902L29.8294 35.4632L27.0759 36.8399C25.5114 37.5283 24.1347 38.1541 23.947 38.1541C23.6966 38.1541 23.7592 36.6522 23.947 34.8374C24.385 31.7084 24.3224 31.5207 22.1322 29.393C19.7541 27.0775 20.067 26.3266 23.3837 26.264C25.8869 26.264 26.3875 25.826 28.0772 22.5093L29.5165 19.7558L30.9558 22.6344C31.7694 24.2615 32.9584 25.7008 33.5216 25.826Z" fill="white" fill-opacity="0.1"/>
</svg>
