<svg width="751" height="333" viewBox="0 0 751 333" fill="none" xmlns="http://www.w3.org/2000/svg">
<path fill-rule="evenodd" clip-rule="evenodd" d="M743.966 65.967C743.951 65.6537 743.954 65.3487 743.969 65.0624C744.019 64.2013 744.819 64.2042 744.882 64.2054C745.012 64.2084 745.593 64.2451 745.732 64.9165C745.741 64.9565 745.762 65.2464 745.768 65.3582C745.78 65.5965 745.786 65.8307 745.753 66.0658C745.783 66.4644 745.848 66.8747 745.972 67.2606C746.153 67.8303 746.447 68.3562 746.977 68.6363C747.926 69.1402 749.174 69.1198 750.217 69.2478C750.653 69.3012 750.985 69.6646 751 70.1033C751.012 70.5423 750.703 70.9253 750.27 71.005C748.966 71.2463 747.466 72.4323 746.512 73.3873C746.218 73.6808 745.889 74.3797 745.522 74.8273C745.225 75.186 744.896 75.4264 744.585 75.5218C744.464 75.5589 743.791 75.6941 743.488 74.9975C743.405 74.8018 743.112 73.7774 743.085 73.6606C742.925 72.9913 742.697 72.3934 742.249 71.861C741.861 71.3995 741.39 70.9964 740.824 70.7729C740.595 70.6828 740.358 70.6143 740.121 70.5438C740.038 70.5337 739.804 70.504 739.721 70.4759C739.552 70.4196 739.427 70.3312 739.338 70.2432C739.169 70.0766 739.084 69.8777 739.069 69.6512C739.057 69.5019 739.078 69.3246 739.184 69.1281C739.264 68.9885 739.445 68.7783 739.771 68.6419C740.112 68.4994 740.844 68.3639 740.975 68.3286C741.882 68.0844 742.771 67.713 743.468 67.0691C743.814 66.7472 743.894 66.4001 743.966 65.967ZM744.547 68.4878C744.896 69.2128 745.418 69.8232 746.144 70.2076C746.444 70.3674 746.77 70.4886 747.108 70.5829C746.411 71.0678 745.765 71.6192 745.252 72.1302C745.086 72.2965 744.905 72.5656 744.713 72.8612C744.487 72.0721 744.155 71.3634 743.61 70.7148C743.287 70.3324 742.922 69.9829 742.516 69.6916C743.251 69.4005 743.948 69.011 744.547 68.4878Z" fill="#4CD080"/>
<path fill-rule="evenodd" clip-rule="evenodd" d="M725.436 91.1542C732.183 91.3172 739.078 90.9882 745.528 93.2943C745.99 93.4603 746.5 93.2173 746.666 92.7578C746.832 92.2954 746.589 91.7856 746.127 91.6196C739.496 89.2482 732.414 89.5417 725.481 89.3757C724.989 89.3638 724.583 89.7521 724.571 90.2412C724.559 90.7333 724.947 91.1394 725.436 91.1542Z" fill="#4CD080"/>
<path fill-rule="evenodd" clip-rule="evenodd" d="M724.935 81.2985C727.025 79.3762 729.305 77.9347 732.061 77.221C732.536 77.0979 732.82 76.6124 732.699 76.1372C732.574 75.6621 732.091 75.3763 731.614 75.4994C728.566 76.2881 726.041 77.8651 723.732 79.9892C723.37 80.3215 723.346 80.8844 723.678 81.2458C724.01 81.6071 724.574 81.6308 724.935 81.2985Z" fill="#4CD080"/>
<path fill-rule="evenodd" clip-rule="evenodd" d="M719.114 60.0596C720.071 56.7827 721.953 54.219 724.837 52.3679C725.249 52.1029 725.371 51.5521 725.104 51.1392C724.84 50.726 724.289 50.6059 723.877 50.8712C720.616 52.9631 718.488 55.8582 717.406 59.5614C717.27 60.0324 717.54 60.5265 718.011 60.6641C718.482 60.8016 718.977 60.5307 719.114 60.0596Z" fill="#4CD080"/>
<path fill-rule="evenodd" clip-rule="evenodd" d="M685.494 55.5025C684.936 56.1647 684.438 56.8761 684.011 57.632C683.762 58.068 683.324 59.0836 683.398 59.819C683.454 60.37 683.715 60.8182 684.237 61.0826C685.07 61.5059 685.737 61.454 686.249 61.1982C686.742 60.9534 687.133 60.4761 687.376 59.8314C687.809 58.6804 687.758 56.9404 687.539 55.8923C688.132 55.2879 688.781 54.7383 689.472 54.2481C694.783 50.4826 702.576 51.8894 708.573 57.5196C710.675 59.492 711.674 63.6386 712.198 68.1078C713.025 75.1205 712.554 82.9528 712.489 85.2474C712.474 85.8512 712.539 86.2093 712.569 86.2807C712.735 86.6752 713.031 86.779 713.236 86.8175C713.523 86.8709 713.751 86.8145 713.938 86.7167C714.187 86.5863 714.395 86.3575 714.49 86.0012C714.537 85.8192 714.552 85.5663 714.546 85.2963C714.54 85.1365 714.501 84.9622 714.534 84.8478C714.765 84.0436 715.044 83.2578 715.314 82.4669C716.221 79.8066 717.397 77.3137 718.699 74.8235C722.846 66.9061 726.847 58.5379 733.644 52.5057C734.012 52.1799 734.047 51.6176 733.721 51.2504C733.395 50.8834 732.832 50.8499 732.465 51.1757C725.505 57.3513 721.366 65.8926 717.125 73.9988C716.138 75.8823 715.225 77.7684 714.439 79.7227C714.51 75.3105 714.404 69.3314 713.422 64.3966C712.726 60.8775 711.561 57.8825 709.791 56.2231C703.101 49.942 694.368 48.5962 688.443 52.7971C687.859 53.2103 687.305 53.6614 686.78 54.1482C683.632 48.6508 677.043 46.4697 671.212 49.1307C670.767 49.3346 670.569 49.8625 670.773 50.3089C670.978 50.7553 671.505 50.9524 671.95 50.7485C677.09 48.4032 682.912 50.472 685.494 55.5025ZM685.95 57.8644C685.814 58.0745 685.683 58.2892 685.559 58.5082C685.47 58.6618 685.336 58.9291 685.245 59.2149C685.215 59.3142 685.191 59.4704 685.179 59.5658C685.289 59.618 685.378 59.6453 685.458 59.6059C685.588 59.5403 685.645 59.377 685.71 59.2042C685.855 58.8191 685.929 58.3398 685.95 57.8644Z" fill="#4CD080"/>
<path fill-rule="evenodd" clip-rule="evenodd" d="M53.9056 3.92797C50.5764 4.96695 47.2933 6.17906 43.9736 7.41208C34.7977 10.8202 13.7219 19.033 1.80127 23.6782C-0.438964 24.5512 -2.35586 25.2981 -3.80967 25.8635C-4.63495 26.1845 -5.56594 25.7802 -5.88909 24.9606C-6.21225 24.1409 -5.8052 23.2162 -4.97993 22.8953C-3.53176 22.3321 -1.62009 21.5871 0.615564 20.7159C12.5298 16.0732 33.6455 7.84486 42.8494 4.42632C46.2658 3.15737 49.7333 1.87644 53.2709 0.785281C53.465 0.725406 53.6622 0.654979 53.9012 0.569629C53.9449 0.554014 53.99 0.5379 54.0368 0.521259C54.3203 0.420354 54.6556 0.303371 55.0049 0.208533C55.6901 0.0225288 56.6184 -0.134121 57.5964 0.17701C58.4645 0.453163 58.6657 1.22526 58.7007 1.49442C58.7359 1.7656 58.6908 1.97865 58.6779 2.03846C58.6449 2.1922 58.5951 2.31146 58.5808 2.34548L58.5804 2.34664C58.5408 2.44126 58.4948 2.53018 58.465 2.58634C58.3977 2.71355 58.3047 2.87598 58.1996 3.05478C57.9852 3.41941 57.6753 3.9284 57.3044 4.52854C56.5605 5.7322 55.5493 7.33833 54.5149 8.96949C52.4551 12.2175 50.2663 15.6226 49.9082 16.1482C49.6031 16.596 49.1394 17.1976 48.6416 17.8433C48.5317 17.986 48.42 18.1308 48.3081 18.2766C47.6666 19.112 46.9655 20.041 46.3301 20.9823C45.6894 21.9315 45.1508 22.8421 44.8112 23.6374C44.6182 24.0897 44.5214 24.4321 44.4791 24.6794C44.6606 24.6934 44.9025 24.6971 45.2131 24.6802C46.3691 24.6171 47.9547 24.3029 49.649 23.8709C52.3292 23.1876 54.9244 22.3115 56.1871 21.8852C56.5314 21.769 56.7766 21.6862 56.8974 21.6499C68.1332 18.2743 79.3958 14.9831 91.1279 13.0696C91.5896 12.9943 92.2299 12.8646 92.997 12.7092C95.4618 12.2099 99.2367 11.4453 102.611 11.3661C104.836 11.3138 107.174 11.5389 109.018 12.4904C109.967 12.98 110.811 13.6755 111.415 14.637C112.02 15.6 112.327 16.7376 112.345 18.0208C112.35 18.4142 112.276 18.8842 112.199 19.2937C112.117 19.7368 112.004 20.2555 111.883 20.7973C111.857 20.9117 111.832 21.0276 111.805 21.1447C111.578 22.1597 111.33 23.2715 111.147 24.3521C110.939 25.5833 110.844 26.6257 110.917 27.3435C110.937 27.5326 110.962 27.6599 110.984 27.7425C112.058 27.9161 113.452 27.7559 115.076 27.4103C115.855 27.2447 116.636 27.049 117.419 26.8526L117.627 26.8004C118.464 26.5908 119.315 26.3805 120.099 26.2345C120.97 26.0723 121.809 26.6422 121.972 27.5074C122.136 28.3726 121.562 29.2054 120.691 29.3677C120.019 29.4927 119.261 29.6786 118.412 29.8914C118.341 29.9091 118.27 29.927 118.198 29.9451C117.424 30.1392 116.587 30.349 115.748 30.5274C113.959 30.9079 111.902 31.208 110.081 30.8162C108.274 30.4272 107.83 28.6993 107.724 27.6657C107.605 26.4996 107.765 25.104 107.982 23.8241C108.179 22.656 108.447 21.4607 108.672 20.4555C108.698 20.3371 108.724 20.2213 108.749 20.1086C108.871 19.5627 108.973 19.0957 109.043 18.7154C109.078 18.5264 109.103 18.3729 109.118 18.252C109.126 18.1923 109.131 18.1461 109.133 18.1117C109.136 18.0763 109.135 18.0623 109.136 18.0651C109.124 17.2699 108.941 16.7204 108.692 16.3248C108.442 15.9277 108.07 15.5933 107.538 15.3191C106.422 14.7429 104.743 14.5046 102.687 14.5529C99.6369 14.6245 96.3864 15.2817 93.9281 15.7788C93.0527 15.9558 92.2777 16.1125 91.648 16.2152C80.149 18.0906 69.0718 21.3227 57.8267 24.7011C57.827 24.701 57.8254 24.7015 57.8217 24.7026L57.8063 24.7075L57.7539 24.7246C57.7099 24.739 57.6537 24.7578 57.5841 24.7813C57.5104 24.8061 57.4281 24.8339 57.3348 24.8655C57.2476 24.895 57.1509 24.9277 57.0425 24.9643C56.6022 25.1128 56.0156 25.3092 55.3326 25.5296C53.9698 25.9693 52.2101 26.509 50.447 26.9585C48.7067 27.4022 46.8716 27.7822 45.3892 27.8631C44.6631 27.9027 43.8819 27.8804 43.2003 27.6762C42.5039 27.4675 41.5946 26.9519 41.3368 25.8334C41.0638 24.6488 41.4251 23.4031 41.8563 22.3931C42.3109 21.3282 42.9768 20.2257 43.6643 19.2072C44.3572 18.1807 45.1081 17.1873 45.7561 16.3435C45.8837 16.1772 46.0059 16.0187 46.1221 15.8679C46.6163 15.2263 47.0029 14.7245 47.2501 14.3617C47.5711 13.8906 49.7253 10.5409 51.7992 7.2706C52.547 6.09137 53.2796 4.93005 53.9056 3.92797ZM111.037 27.8763C111.036 27.879 111.027 27.8679 111.014 27.8355C111.032 27.8575 111.038 27.8737 111.037 27.8763Z" fill="#A089E5"/>
<path fill-rule="evenodd" clip-rule="evenodd" d="M608.759 304.982C608.664 304.418 608.593 303.861 608.547 303.304C608.477 302.469 608.52 301.627 608.495 300.792C608.485 300.437 608.442 299.513 608.459 299.38C608.614 298.222 609.549 298.045 609.823 298.013C609.955 297.994 611.313 297.842 611.606 299.349C611.966 301.19 612.081 303.045 611.954 304.862C612.251 306.406 612.758 307.944 613.428 309.336C616.096 314.875 621.178 315.413 626.685 315.362C627.532 315.349 628.235 316.014 628.279 316.856C628.324 317.704 627.693 318.438 626.85 318.514C623.772 318.812 618.311 321.28 616.423 323.85C616.028 324.388 615.798 325.685 615.494 326.958C615.07 328.724 614.566 330.47 614.001 331.205C613.916 331.319 612.885 332.483 612.577 332.654C611.838 333.059 611.246 332.825 610.91 332.61C610.574 332.395 610.194 331.971 610.042 331.268C609.883 330.534 610.017 329.027 609.992 328.704C609.902 327.534 609.668 325.236 609.19 323.261C608.933 322.198 608.658 321.217 608.204 320.729C606.521 318.926 603.831 319.191 601.566 319.489C601.306 319.52 601.046 319.558 600.786 319.59C599.864 319.862 598.885 320.065 597.85 320.185C596.287 320.369 596.03 318.932 596.016 318.837C595.987 318.628 595.879 317.552 597.057 317.122C597.185 317.077 598.133 316.868 598.499 316.786C599.007 316.672 599.522 316.584 600.039 316.501C605.374 314.843 608.271 310.185 608.759 304.982ZM610.59 310.735C612.604 314.9 615.661 316.913 619.284 317.824H619.283C617.021 319.008 614.963 320.489 613.873 321.976C613.459 322.54 613.079 323.673 612.737 324.945C612.551 323.761 612.301 322.502 611.97 321.426C611.593 320.198 611.086 319.179 610.52 318.571C609.428 317.4 608.057 316.748 606.583 316.425C608.347 314.862 609.685 312.913 610.59 310.735Z" fill="#4563FF" fill-opacity="0.35"/>
</svg>
