<svg width="40" height="40" viewBox="0 0 40 40" fill="none" xmlns="http://www.w3.org/2000/svg">
<circle cx="20" cy="20" r="20" fill="white"/>
<path d="M19.5 18.25C18.9033 18.25 18.331 18.4871 17.909 18.909C17.4871 19.331 17.25 19.9033 17.25 20.5C17.25 21.0967 17.4871 21.669 17.909 22.091C18.331 22.5129 18.9033 22.75 19.5 22.75C20.0967 22.75 20.669 22.5129 21.091 22.091C21.5129 21.669 21.75 21.0967 21.75 20.5C21.75 19.9033 21.5129 19.331 21.091 18.909C20.669 18.4871 20.0967 18.25 19.5 18.25ZM19.5 16.75C20.4946 16.75 21.4484 17.1451 22.1517 17.8483C22.8549 18.5516 23.25 19.5054 23.25 20.5C23.25 21.4946 22.8549 22.4484 22.1517 23.1517C21.4484 23.8549 20.4946 24.25 19.5 24.25C18.5054 24.25 17.5516 23.8549 16.8483 23.1517C16.1451 22.4484 15.75 21.4946 15.75 20.5C15.75 19.5054 16.1451 18.5516 16.8483 17.8483C17.5516 17.1451 18.5054 16.75 19.5 16.75ZM24.375 16.5625C24.375 16.8111 24.2762 17.0496 24.1004 17.2254C23.9246 17.4012 23.6861 17.5 23.4375 17.5C23.1889 17.5 22.9504 17.4012 22.7746 17.2254C22.5988 17.0496 22.5 16.8111 22.5 16.5625C22.5 16.3139 22.5988 16.0754 22.7746 15.8996C22.9504 15.7238 23.1889 15.625 23.4375 15.625C23.6861 15.625 23.9246 15.7238 24.1004 15.8996C24.2762 16.0754 24.375 16.3139 24.375 16.5625ZM19.5 14.5C17.6445 14.5 17.3415 14.5053 16.4783 14.5435C15.8903 14.5713 15.4957 14.65 15.1297 14.7925C14.8043 14.9185 14.5695 15.0692 14.3197 15.3197C14.085 15.5465 13.9045 15.8234 13.7917 16.1297C13.6492 16.4972 13.5705 16.891 13.5435 17.4783C13.5045 18.3063 13.5 18.5957 13.5 20.5C13.5 22.3555 13.5053 22.6585 13.5435 23.5217C13.5713 24.109 13.65 24.5043 13.7917 24.8695C13.9193 25.1958 14.0693 25.4305 14.3183 25.6795C14.571 25.9315 14.8057 26.0822 15.1283 26.2067C15.4987 26.35 15.8933 26.4295 16.4783 26.4565C17.3063 26.4955 17.5957 26.5 19.5 26.5C21.3555 26.5 21.6585 26.4948 22.5217 26.4565C23.1082 26.4288 23.5035 26.35 23.8695 26.2083C24.1943 26.0815 24.4305 25.9307 24.6795 25.6818C24.9323 25.429 25.083 25.1943 25.2075 24.8717C25.35 24.502 25.4295 24.1067 25.4565 23.5217C25.4955 22.6937 25.5 22.4043 25.5 20.5C25.5 18.6445 25.4948 18.3415 25.4565 17.4783C25.4288 16.8918 25.35 16.4957 25.2075 16.1297C25.0945 15.8238 24.9143 15.547 24.6803 15.3197C24.4536 15.0849 24.1766 14.9044 23.8702 14.7917C23.5027 14.6492 23.1082 14.5705 22.5217 14.5435C21.6937 14.5045 21.4043 14.5 19.5 14.5ZM19.5 13C21.5378 13 21.792 13.0075 22.5915 13.045C23.3903 13.0825 23.934 13.2078 24.4125 13.3938C24.9075 13.5843 25.3245 13.8422 25.7415 14.2585C26.1229 14.6334 26.418 15.0869 26.6063 15.5875C26.7915 16.0652 26.9175 16.6097 26.955 17.4085C26.9903 18.208 27 18.4622 27 20.5C27 22.5378 26.9925 22.792 26.955 23.5915C26.9175 24.3903 26.7915 24.934 26.6063 25.4125C26.4185 25.9133 26.1233 26.367 25.7415 26.7415C25.3665 27.1227 24.913 27.4178 24.4125 27.6063C23.9347 27.7915 23.3903 27.9175 22.5915 27.955C21.792 27.9903 21.5378 28 19.5 28C17.4622 28 17.208 27.9925 16.4085 27.955C15.6097 27.9175 15.066 27.7915 14.5875 27.6063C14.0867 27.4184 13.6331 27.1232 13.2585 26.7415C12.8771 26.3666 12.5819 25.9131 12.3938 25.4125C12.2078 24.9347 12.0825 24.3903 12.045 23.5915C12.0097 22.792 12 22.5378 12 20.5C12 18.4622 12.0075 18.208 12.045 17.4085C12.0825 16.609 12.2078 16.066 12.3938 15.5875C12.5814 15.0866 12.8766 14.633 13.2585 14.2585C13.6333 13.8769 14.0868 13.5818 14.5875 13.3938C15.066 13.2078 15.609 13.0825 16.4085 13.045C17.208 13.0097 17.4622 13 19.5 13Z" fill="#6366F1"/>
</svg>
